<svg xmlns="http://www.w3.org/2000/svg" width="70.64" height="64.643" viewBox="0 0 70.64 64.643">
  <g id="happyholidaysoriginal_logo-01" data-name="happyholidaysoriginal logo-01" transform="translate(-756.98 -297.56)">
    <path id="Path_15" data-name="Path 15" d="M915.23,347.514c.054-.129.1-.263.17-.39.79-1.645,1.643-3.264,2.357-4.941a16.665,16.665,0,0,0,1.2-5.227,14.425,14.425,0,0,0-2.187-8.925,35.423,35.423,0,0,0-2.987-3.984,26.476,26.476,0,0,0-2.387-2.328.509.509,0,0,0-.5-.015,7.141,7.141,0,0,0-1.027.848,29.047,29.047,0,0,0-4.193,5.069,14.582,14.582,0,0,0-2.419,9.3,23.345,23.345,0,0,0,1.865,6.755c.454,1.094,1.017,2.141,1.538,3.21.09.183.17.368.265.553l-.141.127a2.53,2.53,0,0,0-.181-.339,52.288,52.288,0,0,1-3.967-5.641,19.414,19.414,0,0,1-2.533-7.772,13.5,13.5,0,0,1,1.187-6.546,17.5,17.5,0,0,1,3.715-5.186c.748-.785,1.473-1.594,2.267-2.331,1.109-1.033,2.272-2.006,3.406-3.009a.592.592,0,0,1,.9,0,57.2,57.2,0,0,1,6.589,6.373,19.133,19.133,0,0,1,3.008,4.819,12.886,12.886,0,0,1,.944,6.845,17.6,17.6,0,0,1-3.087,7.7c-1.144,1.678-2.374,3.3-3.577,4.939a1.017,1.017,0,0,1-.149.134Z" transform="translate(-118.822 -15.761)" fill="#15b9aa"/>
    <path id="Path_16" data-name="Path 16" d="M1009.939,434.29c-.351.188-.693.376-1.038.558a18.544,18.544,0,0,1-2.926,1.5,26.764,26.764,0,0,1-4.523.941c-1.838.236-3.7.3-5.549.432a25.126,25.126,0,0,0-9.072,1.865,14.363,14.363,0,0,0-4.5,2.921,2.118,2.118,0,0,1-.295.22l-.1-.09a12.847,12.847,0,0,1,.944-1.314,49.987,49.987,0,0,1,3.818-3.989,17.321,17.321,0,0,1,7.275-3.73,32.451,32.451,0,0,1,6.175-.822c2.082-.112,4.122-.237,6.173-.451a11.482,11.482,0,0,0,3.832-1.136,12.3,12.3,0,0,0,3.806-3.115,2.932,2.932,0,0,1,.275-.29c.025-.025.078-.025.2-.058-.047.517-.075,1-.136,1.472a25.076,25.076,0,0,1-2.713,8.438,17.912,17.912,0,0,1-2.713,4,16.125,16.125,0,0,1-5.046,3.749,16.463,16.463,0,0,1-7.24,1.426,19.63,19.63,0,0,1-4.2-.463,8.1,8.1,0,0,1-.978-.363l.024-.151h.537a32.386,32.386,0,0,0,6.1-.2,12.021,12.021,0,0,0,5.629-2.313,19.807,19.807,0,0,0,2.263-1.941,19.072,19.072,0,0,0,3.979-6.694,1.7,1.7,0,0,0,.066-.258A1.019,1.019,0,0,1,1009.939,434.29Z" transform="translate(-186.819 -108.1)" fill="#6a175f"/>
    <path id="Path_17" data-name="Path 17" d="M761.365,434.612a11.254,11.254,0,0,0,.339,1.168,18.32,18.32,0,0,0,3.588,5.614,16.3,16.3,0,0,0,3.73,3.018,11.221,11.221,0,0,0,4.856,1.514c1.819.141,3.65.1,5.476.137h.6l.034.148a4.3,4.3,0,0,1-.782.3,31.1,31.1,0,0,1-3.391.509,18.277,18.277,0,0,1-5.495-.4,14.947,14.947,0,0,1-8.04-5.007,23.171,23.171,0,0,1-4.961-10.681c-.17-.941-.229-1.907-.339-2.86l.108-.064a1.961,1.961,0,0,1,.292.261,10.712,10.712,0,0,0,7.26,4.2c1.773.271,3.571.4,5.361.543a46.084,46.084,0,0,1,7.291.793,18.491,18.491,0,0,1,6.1,2.826,24.246,24.246,0,0,1,5.7,5.843,5.678,5.678,0,0,1,.314.551c-.615-.5-1.119-.943-1.656-1.339a17.931,17.931,0,0,0-8.945-3.372c-2.335-.242-4.679-.373-7.018-.571a21.707,21.707,0,0,1-7.748-1.706c-.693-.339-1.341-.761-2.011-1.146l-.56-.326Z" transform="translate(0 -108.324)" fill="#6a175f"/>
    <path id="Path_18" data-name="Path 18" d="M864.248,297.56c1.673,1.1,5.115,5.9,5.117,7.236-.5-.366-.938-.724-1.409-1.036-.753-.5-1.526-.975-2.292-1.448a.553.553,0,0,0-.836.186c-.722.978-1.57,1.875-2.2,2.909a12.936,12.936,0,0,0-2.035,6.289,17.405,17.405,0,0,0,1.378,7.021,31.817,31.817,0,0,0,4.239,6.94c.207.285.4.583.592.875l-.085.09c-.2-.17-.407-.339-.6-.526a33.37,33.37,0,0,1-5.105-5.934,15.993,15.993,0,0,1-.682-17.2,28.573,28.573,0,0,1,3.135-4.7A8.416,8.416,0,0,1,864.248,297.56Z" transform="translate(-84.013)" fill="#6a175f"/>
    <path id="Path_19" data-name="Path 19" d="M1008.493,326.873a6.428,6.428,0,0,1,.4-.59,31.445,31.445,0,0,0,4.517-7.236,14.652,14.652,0,0,0,1.017-9.7,13.273,13.273,0,0,0-2.319-4.688,25.761,25.761,0,0,0-1.658-2.035.6.6,0,0,0-.566-.088c-.848.476-1.7.988-2.518,1.509-.407.256-.787.558-1.178.838l-.127-.093c.137-.348.246-.71.417-1.043a21.428,21.428,0,0,1,4.32-5.705c.281-.268.458-.283.722,0a24.3,24.3,0,0,1,3.1,4.29,20.852,20.852,0,0,1,2.3,5.629,13.538,13.538,0,0,1-.653,8.508,25.629,25.629,0,0,1-3.147,5.778,16.147,16.147,0,0,1-1.248,1.509c-.938.975-1.909,1.918-2.87,2.869-.122.12-.268.219-.4.327Z" transform="translate(-206.849 -0.225)" fill="#6a175f"/>
    <path id="Path_20" data-name="Path 20" d="M790.61,341.17c3.747,1.082,7.158,2.543,9.746,5.5a1,1,0,0,1-.21-.076,15.569,15.569,0,0,0-4.362-1.865,17.83,17.83,0,0,0-2.021-.31c-.349-.047-.286.22-.285.415a11.867,11.867,0,0,0,.563,3.46,17.992,17.992,0,0,0,5.3,8.057,30.475,30.475,0,0,0,5.4,3.852.339.339,0,0,1,.169.236,3.772,3.772,0,0,1-.57-.119c-1.421-.519-2.869-.98-4.251-1.589a14.074,14.074,0,0,1-6.2-5.063,16.46,16.46,0,0,1-2.508-5.956c-.288-1.453-.449-2.931-.634-4.408C790.676,342.635,790.659,341.941,790.61,341.17Z" transform="translate(-27.928 -36.216)" fill="#15b9aa"/>
    <path id="Path_21" data-name="Path 21" d="M1059.711,347.126c.953-1.818,7.394-5.358,9.74-5.426-.025.456-.02.914-.078,1.356-.222,1.721-.378,3.455-.72,5.153a14.986,14.986,0,0,1-3.084,6.729,13.489,13.489,0,0,1-4.5,3.655c-1.105.541-2.219,1.072-3.36,1.526a13.688,13.688,0,0,1-2.592.692c.431-.285.87-.56,1.289-.858,1.428-1.017,2.882-1.994,4.261-3.072a12.634,12.634,0,0,0,3.31-3.927c.666-1.222,1.338-2.447,1.889-3.722a11.37,11.37,0,0,0,.788-4.408A15.676,15.676,0,0,0,1059.711,347.126Z" transform="translate(-247.591 -36.656)" fill="#15b9aa"/>
    <path id="Path_22" data-name="Path 22" d="M935.594,550.289a7.7,7.7,0,0,1-2.655,6.343,6.5,6.5,0,0,1-2.882,1.338,9.494,9.494,0,0,1-4.325-.1,6.285,6.285,0,0,1-4.349-3.647,8.166,8.166,0,0,1,1.036-8.986,6.134,6.134,0,0,1,3.108-1.994,7.939,7.939,0,0,1,4.949-.039,6.81,6.81,0,0,1,4.971,5.714c.032.19.068.38.086.571C935.561,549.755,935.573,550.023,935.594,550.289Zm-1.679.329c-.054-.59-.078-1.187-.17-1.77a5.752,5.752,0,0,0-5.347-5.178,5.665,5.665,0,0,0-5.453,3.276,9.612,9.612,0,0,0-.609,4.59c.192,2.976,1.967,5.6,5.339,5.9a5.122,5.122,0,0,0,4.557-1.865A7.093,7.093,0,0,0,933.915,550.618Z" transform="translate(-135.788 -203.686)" fill="#15b9aa"/>
    <path id="Path_23" data-name="Path 23" d="M933.63,635.53a14.763,14.763,0,0,1,1.187.931,10.512,10.512,0,0,0,3.883,2.113.863.863,0,0,0,.551-.012,9.778,9.778,0,0,0,3.371-2.035,7.171,7.171,0,0,1,1.273-.958,17.828,17.828,0,0,1-5.071,7.3C937.3,641.985,933.716,636.981,933.63,635.53Z" transform="translate(-146.699 -280.668)" fill="#6a175f"/>
  </g>
</svg>
