<svg xmlns="http://www.w3.org/2000/svg" width="132.338" height="55.191" viewBox="0 0 132.338 55.191">
  <g id="happyholidaysoriginal_logo-01" data-name="happyholidaysoriginal logo-01" transform="translate(-369.37 -297.56)">
    <path id="Path_15" data-name="Path 15" d="M913.012,342.984c.046-.11.087-.224.145-.333.675-1.4,1.4-2.787,2.012-4.218a14.228,14.228,0,0,0,1.026-4.463,12.315,12.315,0,0,0-1.867-7.62,30.231,30.231,0,0,0-2.551-3.4,22.6,22.6,0,0,0-2.038-1.987.434.434,0,0,0-.423-.013,6.1,6.1,0,0,0-.877.724A24.8,24.8,0,0,0,904.86,326a12.45,12.45,0,0,0-2.066,7.944,19.933,19.933,0,0,0,1.592,5.767c.388.934.869,1.828,1.313,2.74.077.156.145.314.226.472l-.12.109a2.175,2.175,0,0,0-.155-.29,44.642,44.642,0,0,1-3.387-4.816,16.574,16.574,0,0,1-2.163-6.635,11.525,11.525,0,0,1,1.013-5.589,14.944,14.944,0,0,1,3.172-4.428c.638-.67,1.258-1.361,1.935-1.99.947-.882,1.94-1.712,2.908-2.569a.506.506,0,0,1,.766,0,48.836,48.836,0,0,1,5.625,5.441,16.341,16.341,0,0,1,2.568,4.114,11,11,0,0,1,.806,5.844,15.022,15.022,0,0,1-2.636,6.57c-.977,1.433-2.027,2.814-3.054,4.217a.864.864,0,0,1-.127.114Z" transform="translate(-472.036 -16.231)" fill="#15b9aa"/>
    <path id="Path_16" data-name="Path 16" d="M1005.845,433.331c-.3.161-.592.321-.886.476a15.836,15.836,0,0,1-2.5,1.278,22.854,22.854,0,0,1-3.862.8c-1.569.2-3.157.256-4.738.369a21.452,21.452,0,0,0-7.746,1.592,12.261,12.261,0,0,0-3.84,2.494,1.826,1.826,0,0,1-.252.188l-.083-.077a10.983,10.983,0,0,1,.806-1.122,42.7,42.7,0,0,1,3.26-3.406,14.788,14.788,0,0,1,6.211-3.185,27.708,27.708,0,0,1,5.272-.7c1.778-.1,3.519-.2,5.271-.385a9.8,9.8,0,0,0,3.271-.97,10.5,10.5,0,0,0,3.25-2.659,2.5,2.5,0,0,1,.235-.248c.022-.022.067-.022.171-.049-.04.441-.064.851-.116,1.256a21.412,21.412,0,0,1-2.316,7.2,15.293,15.293,0,0,1-2.316,3.419,13.769,13.769,0,0,1-4.308,3.2,14.054,14.054,0,0,1-6.181,1.217,16.757,16.757,0,0,1-3.587-.4,6.915,6.915,0,0,1-.835-.31l.02-.129h.459a27.65,27.65,0,0,0,5.211-.166,10.264,10.264,0,0,0,4.806-1.974,16.9,16.9,0,0,0,1.932-1.657,16.285,16.285,0,0,0,3.4-5.715,1.446,1.446,0,0,0,.056-.22A.863.863,0,0,1,1005.845,433.331Z" transform="translate(-542.063 -111.327)" fill="#6a175f"/>
    <path id="Path_17" data-name="Path 17" d="M760.724,433.645a9.546,9.546,0,0,0,.289,1,15.64,15.64,0,0,0,3.063,4.793,13.913,13.913,0,0,0,3.185,2.577,9.581,9.581,0,0,0,4.146,1.293c1.553.12,3.116.085,4.675.117h.513l.029.126a3.671,3.671,0,0,1-.667.253,26.569,26.569,0,0,1-2.895.434,15.608,15.608,0,0,1-4.692-.344,12.762,12.762,0,0,1-6.864-4.275,19.784,19.784,0,0,1-4.236-9.12c-.145-.8-.2-1.629-.289-2.442l.093-.055a1.674,1.674,0,0,1,.249.223,9.146,9.146,0,0,0,6.2,3.584c1.514.232,3.048.34,4.577.463a39.351,39.351,0,0,1,6.224.677,15.787,15.787,0,0,1,5.211,2.413,20.7,20.7,0,0,1,4.865,4.988,4.854,4.854,0,0,1,.268.47c-.525-.427-.955-.8-1.414-1.144a15.309,15.309,0,0,0-7.637-2.879c-1.993-.207-4-.318-5.991-.488a18.53,18.53,0,0,1-6.615-1.456c-.592-.29-1.145-.65-1.717-.979l-.478-.278Z" transform="translate(-349.667 -111.558)" fill="#6a175f"/>
    <path id="Path_18" data-name="Path 18" d="M863.356,297.56c1.429.937,4.367,5.036,4.369,6.178-.423-.313-.8-.618-1.2-.884-.643-.427-1.3-.832-1.957-1.236a.472.472,0,0,0-.714.159c-.617.835-1.341,1.6-1.882,2.484a11.044,11.044,0,0,0-1.737,5.369,14.862,14.862,0,0,0,1.177,5.994,27.166,27.166,0,0,0,3.619,5.925c.177.243.337.5.505.747l-.072.077c-.171-.145-.347-.289-.51-.449a28.493,28.493,0,0,1-4.359-5.066,13.655,13.655,0,0,1-.582-14.687,24.389,24.389,0,0,1,2.677-4.01,7.188,7.188,0,0,1,.669-.6Z" transform="translate(-436.188 0)" fill="#6a175f"/>
    <path id="Path_19" data-name="Path 19" d="M1008.137,322.626a5.481,5.481,0,0,1,.342-.5,26.841,26.841,0,0,0,3.856-6.178,12.51,12.51,0,0,0,.869-8.284,11.334,11.334,0,0,0-1.98-4,22,22,0,0,0-1.416-1.737.514.514,0,0,0-.484-.075c-.724.407-1.447.844-2.149,1.288-.347.219-.672.476-1.006.715l-.109-.08c.117-.3.21-.607.356-.89a18.3,18.3,0,0,1,3.688-4.871c.24-.229.391-.242.617,0a20.743,20.743,0,0,1,2.647,3.662,17.805,17.805,0,0,1,1.967,4.806,11.559,11.559,0,0,1-.557,7.264,21.88,21.88,0,0,1-2.687,4.933,13.808,13.808,0,0,1-1.065,1.288c-.8.832-1.63,1.637-2.451,2.449-.1.1-.229.187-.343.279Z" transform="translate(-562.691 -0.232)" fill="#6a175f"/>
    <path id="Path_20" data-name="Path 20" d="M790.61,341.17c3.2.924,6.112,2.171,8.32,4.7a.859.859,0,0,1-.18-.065,13.292,13.292,0,0,0-3.724-1.592,15.224,15.224,0,0,0-1.726-.265c-.3-.041-.245.188-.243.355a10.131,10.131,0,0,0,.481,2.954,15.36,15.36,0,0,0,4.524,6.879,26.018,26.018,0,0,0,4.609,3.289.289.289,0,0,1,.145.2,3.228,3.228,0,0,1-.486-.1c-1.213-.443-2.449-.837-3.629-1.356a12.018,12.018,0,0,1-5.289-4.322,14.051,14.051,0,0,1-2.141-5.085c-.246-1.241-.384-2.5-.541-3.764C790.666,342.421,790.652,341.829,790.61,341.17Z" transform="translate(-378.429 -37.297)" fill="#15b9aa"/>
    <path id="Path_21" data-name="Path 21" d="M1059.04,346.332c.814-1.552,6.313-4.574,8.316-4.632-.022.389-.017.78-.067,1.158-.19,1.469-.323,2.95-.615,4.4a12.794,12.794,0,0,1-2.633,5.745,11.517,11.517,0,0,1-3.839,3.121c-.944.462-1.895.915-2.869,1.3a11.686,11.686,0,0,1-2.213.591c.367-.243.743-.478,1.1-.732,1.219-.868,2.461-1.7,3.638-2.623a10.787,10.787,0,0,0,2.826-3.353c.569-1.044,1.142-2.089,1.613-3.177a9.708,9.708,0,0,0,.673-3.764A13.384,13.384,0,0,0,1059.04,346.332Z" transform="translate(-604.65 -37.751)" fill="#15b9aa"/>
    <path id="Path_22" data-name="Path 22" d="M933.385,549.2a6.57,6.57,0,0,1-2.267,5.415,5.548,5.548,0,0,1-2.461,1.142,8.106,8.106,0,0,1-3.693-.083,5.366,5.366,0,0,1-3.713-3.114,6.972,6.972,0,0,1,.884-7.672,5.237,5.237,0,0,1,2.653-1.7,6.778,6.778,0,0,1,4.225-.033,5.814,5.814,0,0,1,4.244,4.878c.028.162.058.324.074.488C933.358,548.743,933.368,548.971,933.385,549.2Zm-1.433.281c-.047-.5-.067-1.013-.145-1.511a4.911,4.911,0,0,0-4.566-4.421,4.837,4.837,0,0,0-4.655,2.8,8.2,8.2,0,0,0-.52,3.919c.164,2.54,1.679,4.777,4.558,5.033a4.374,4.374,0,0,0,3.891-1.592A6.057,6.057,0,0,0,931.952,549.479Z" transform="translate(-489.508 -209.767)" fill="#15b9aa"/>
    <path id="Path_23" data-name="Path 23" d="M933.63,635.53a12.6,12.6,0,0,1,1.013.795,8.977,8.977,0,0,0,3.315,1.8.737.737,0,0,0,.471-.01,8.349,8.349,0,0,0,2.878-1.737,6.123,6.123,0,0,1,1.087-.818,15.221,15.221,0,0,1-4.33,6.235C936.763,641.041,933.7,636.769,933.63,635.53Z" transform="translate(-500.746 -289.047)" fill="#6a175f"/>
    <text id="HAPPY_H" data-name="HAPPY H" transform="translate(369.37 342.374)" fill="#6a175f" font-size="9" font-family="TranscendRegular, Transcend" letter-spacing="0.25em"><tspan x="0" y="0">HAPP</tspan><tspan y="0" letter-spacing="0.22em">Y</tspan><tspan y="0" xml:space="preserve"> H</tspan></text>
    <text id="LIDAYSS" transform="translate(450.708 342.374)" fill="#6a175f" font-size="9" font-family="TranscendRegular, Transcend" letter-spacing="0.25em"><tspan x="0" y="0">LID</tspan><tspan y="0" letter-spacing="0.16em">A</tspan><tspan y="0" letter-spacing="0.23em">YS</tspan><tspan y="0">S</tspan></text>
  </g>
</svg>
