<svg xmlns="http://www.w3.org/2000/svg" width="228.437" height="76.949" viewBox="0 0 228.437 76.949">
  <g id="white_logo-01" data-name="white logo-01" transform="translate(-351.37 -297.56)">
    <path id="Path_6" data-name="Path 6" d="M918.118,353.41c.065-.153.121-.313.2-.464.94-1.958,1.956-3.885,2.805-5.881a19.836,19.836,0,0,0,1.431-6.222,17.171,17.171,0,0,0-2.6-10.624,42.165,42.165,0,0,0-3.556-4.743,31.516,31.516,0,0,0-2.842-2.771.606.606,0,0,0-.589-.018,8.5,8.5,0,0,0-1.223,1.009,34.579,34.579,0,0,0-4.991,6.034,17.358,17.358,0,0,0-2.88,11.076,27.791,27.791,0,0,0,2.22,8.041c.541,1.3,1.211,2.549,1.831,3.82.107.218.2.438.315.658l-.168.151a3,3,0,0,0-.216-.4,62.252,62.252,0,0,1-4.723-6.715,23.11,23.11,0,0,1-3.015-9.252,16.067,16.067,0,0,1,1.413-7.792,20.834,20.834,0,0,1,4.422-6.174c.89-.934,1.754-1.9,2.7-2.775,1.32-1.229,2.7-2.388,4.055-3.582a.705.705,0,0,1,1.068,0,68.086,68.086,0,0,1,7.843,7.586,22.775,22.775,0,0,1,3.58,5.736,15.339,15.339,0,0,1,1.124,8.148,20.946,20.946,0,0,1-3.675,9.161c-1.362,2-2.826,3.923-4.258,5.879a1.215,1.215,0,0,1-.178.159Z" transform="translate(-441.944 -15.148)" fill="#fff"/>
    <path id="Path_7" data-name="Path 7" d="M1015.269,435.538c-.418.224-.825.448-1.235.664a22.074,22.074,0,0,1-3.483,1.782,31.852,31.852,0,0,1-5.385,1.12c-2.188.281-4.4.357-6.606.515-3.7.266-7.4.62-10.8,2.22a17.1,17.1,0,0,0-5.354,3.477,2.522,2.522,0,0,1-.351.262l-.115-.107a15.291,15.291,0,0,1,1.124-1.564,59.5,59.5,0,0,1,4.545-4.749,20.618,20.618,0,0,1,8.66-4.44,38.63,38.63,0,0,1,7.35-.979c2.478-.133,4.906-.283,7.348-.537a13.668,13.668,0,0,0,4.561-1.352,14.639,14.639,0,0,0,4.531-3.707,3.489,3.489,0,0,1,.327-.345c.03-.03.093-.03.238-.069-.057.616-.089,1.187-.161,1.752a29.85,29.85,0,0,1-3.229,10.045,21.32,21.32,0,0,1-3.229,4.767,19.2,19.2,0,0,1-6.006,4.462,19.6,19.6,0,0,1-8.618,1.7,23.365,23.365,0,0,1-5-.551,9.635,9.635,0,0,1-1.165-.432l.028-.18h.64a38.554,38.554,0,0,0,7.266-.232,14.31,14.31,0,0,0,6.7-2.753,23.569,23.569,0,0,0,2.694-2.311,22.7,22.7,0,0,0,4.737-7.968,2.02,2.02,0,0,0,.079-.307A1.2,1.2,0,0,1,1015.269,435.538Z" transform="translate(-507.298 -103.899)" fill="#fff"/>
    <path id="Path_8" data-name="Path 8" d="M762.2,435.871a13.4,13.4,0,0,0,.4,1.391,21.807,21.807,0,0,0,4.271,6.682,19.4,19.4,0,0,0,4.44,3.592,13.357,13.357,0,0,0,5.78,1.8c2.166.168,4.345.119,6.519.163h.714l.04.176a5.117,5.117,0,0,1-.93.353,37.032,37.032,0,0,1-4.036.605,21.756,21.756,0,0,1-6.541-.48,17.793,17.793,0,0,1-9.57-5.96,27.582,27.582,0,0,1-5.905-12.715c-.2-1.12-.272-2.271-.4-3.4l.129-.077a2.334,2.334,0,0,1,.347.311,12.752,12.752,0,0,0,8.642,5c2.111.323,4.25.474,6.382.646a54.859,54.859,0,0,1,8.678.945,22.013,22.013,0,0,1,7.266,3.364,28.862,28.862,0,0,1,6.783,6.955,6.749,6.749,0,0,1,.373.656c-.733-.6-1.332-1.122-1.972-1.594a21.345,21.345,0,0,0-10.648-4.014c-2.779-.289-5.57-.444-8.353-.68a25.838,25.838,0,0,1-9.223-2.03c-.826-.4-1.6-.906-2.394-1.364l-.666-.388Z" transform="translate(-327.74 -104.114)" fill="#fff"/>
    <path id="Path_9" data-name="Path 9" d="M865.41,297.56c1.992,1.306,6.089,7.021,6.091,8.614-.589-.436-1.116-.862-1.677-1.233-.9-.6-1.816-1.16-2.729-1.724a.658.658,0,0,0-.995.222c-.86,1.164-1.869,2.232-2.624,3.463a15.4,15.4,0,0,0-2.422,7.486,20.718,20.718,0,0,0,1.641,8.357,37.873,37.873,0,0,0,5.046,8.261c.246.339.47.694.7,1.041l-.1.107c-.238-.2-.484-.4-.71-.626a39.724,39.724,0,0,1-6.077-7.064,19.038,19.038,0,0,1-.811-20.477,34.015,34.015,0,0,1,3.732-5.59A10.027,10.027,0,0,1,865.41,297.56Z" transform="translate(-408.488)" fill="#fff"/>
    <path id="Path_10" data-name="Path 10" d="M1008.956,332.4a7.659,7.659,0,0,1,.476-.7,37.428,37.428,0,0,0,5.377-8.614,17.441,17.441,0,0,0,1.211-11.55,15.8,15.8,0,0,0-2.761-5.58,30.647,30.647,0,0,0-1.974-2.422.717.717,0,0,0-.674-.1c-1.009.567-2.018,1.177-3,1.8-.484.3-.936.664-1.4,1l-.151-.111c.163-.414.293-.846.5-1.241a25.508,25.508,0,0,1,5.142-6.791c.335-.319.545-.337.86,0a28.916,28.916,0,0,1,3.691,5.106,24.826,24.826,0,0,1,2.743,6.7,16.116,16.116,0,0,1-.777,10.127,30.508,30.508,0,0,1-3.746,6.878,19.225,19.225,0,0,1-1.485,1.8c-1.116,1.16-2.273,2.283-3.417,3.415-.145.143-.319.26-.478.39Z" transform="translate(-526.55 -0.216)" fill="#fff"/>
    <path id="Path_11" data-name="Path 11" d="M790.61,341.17c4.46,1.288,8.521,3.027,11.6,6.549a1.2,1.2,0,0,1-.25-.091,18.531,18.531,0,0,0-5.193-2.22,21.23,21.23,0,0,0-2.406-.369c-.416-.057-.341.262-.339.494a14.128,14.128,0,0,0,.67,4.119A21.416,21.416,0,0,0,801,359.243a36.277,36.277,0,0,0,6.426,4.585.4.4,0,0,1,.2.281,4.492,4.492,0,0,1-.678-.141c-1.691-.618-3.415-1.167-5.06-1.891a16.754,16.754,0,0,1-7.375-6.026,19.592,19.592,0,0,1-2.985-7.09c-.343-1.73-.535-3.49-.755-5.247C790.689,342.914,790.669,342.088,790.61,341.17Z" transform="translate(-354.583 -34.809)" fill="#fff"/>
    <path id="Path_12" data-name="Path 12" d="M1060.585,348.158c1.134-2.164,8.8-6.378,11.595-6.458-.03.543-.024,1.088-.093,1.615-.264,2.049-.45,4.113-.858,6.133a17.838,17.838,0,0,1-3.671,8.01,16.058,16.058,0,0,1-5.352,4.351c-1.316.644-2.642,1.276-4,1.816a16.294,16.294,0,0,1-3.086.823c.513-.339,1.035-.666,1.534-1.021,1.7-1.211,3.431-2.373,5.072-3.657a15.037,15.037,0,0,0,3.94-4.674c.793-1.455,1.592-2.912,2.248-4.43a13.535,13.535,0,0,0,.938-5.247A18.66,18.66,0,0,0,1060.585,348.158Z" transform="translate(-565.709 -35.232)" fill="#fff"/>
    <path id="Path_13" data-name="Path 13" d="M938.469,551.709a9.16,9.16,0,0,1-3.161,7.55,7.732,7.732,0,0,1-3.431,1.592,11.3,11.3,0,0,1-5.148-.115,7.482,7.482,0,0,1-5.177-4.341,9.72,9.72,0,0,1,1.233-10.7,7.3,7.3,0,0,1,3.7-2.373,9.451,9.451,0,0,1,5.891-.046,8.106,8.106,0,0,1,5.917,6.8c.038.226.081.452.1.68C938.43,551.073,938.444,551.392,938.469,551.709Zm-2,.391c-.065-.7-.093-1.413-.2-2.107a6.847,6.847,0,0,0-6.365-6.164,6.744,6.744,0,0,0-6.491,3.9,11.441,11.441,0,0,0-.725,5.463c.228,3.542,2.341,6.66,6.355,7.017a6.1,6.1,0,0,0,5.425-2.22A8.443,8.443,0,0,0,936.471,552.1Z" transform="translate(-458.25 -195.77)" fill="#fff"/>
    <path id="Path_14" data-name="Path 14" d="M933.63,635.53a17.565,17.565,0,0,1,1.413,1.108,12.514,12.514,0,0,0,4.622,2.515,1.027,1.027,0,0,0,.656-.014,11.64,11.64,0,0,0,4.012-2.422,8.536,8.536,0,0,1,1.516-1.14,21.221,21.221,0,0,1-6.036,8.693C938,643.213,933.733,637.258,933.63,635.53Z" transform="translate(-468.738 -269.76)" fill="#fff"/>
    <text id="HAPPY_H" data-name="HAPPY H" transform="translate(351.37 363.493)" fill="#fff" font-size="16" font-family="TranscendRegular, Transcend" letter-spacing="0.25em"><tspan x="0" y="0">HAPP</tspan><tspan y="0" letter-spacing="0.22em">Y</tspan><tspan y="0" xml:space="preserve"> H</tspan></text>
    <text id="LIDAYSS" transform="translate(489.807 363.493)" fill="#fff" font-size="16" font-family="TranscendRegular, Transcend" letter-spacing="0.25em"><tspan x="0" y="0">LID</tspan><tspan y="0" letter-spacing="0.16em">A</tspan><tspan y="0" letter-spacing="0.23em">YS</tspan><tspan y="0">S</tspan></text>
  </g>
</svg>
