<svg xmlns="http://www.w3.org/2000/svg" width="160.178" height="62.45" viewBox="0 0 160.178 62.45">
  <g id="white_logo-01" data-name="white logo-01" transform="translate(-366.37 -297.56)">
    <path id="Path_6" data-name="Path 6" d="M914.719,346.463c.053-.124.1-.254.162-.377.763-1.589,1.587-3.153,2.276-4.773a16.1,16.1,0,0,0,1.161-5.05,13.936,13.936,0,0,0-2.11-8.622,34.22,34.22,0,0,0-2.886-3.849,25.572,25.572,0,0,0-2.306-2.249.492.492,0,0,0-.478-.015,6.9,6.9,0,0,0-.993.819,28.063,28.063,0,0,0-4.05,4.9,14.087,14.087,0,0,0-2.337,8.989,22.555,22.555,0,0,0,1.8,6.526c.439,1.055.983,2.069,1.486,3.1.087.177.162.355.256.534l-.136.123a2.436,2.436,0,0,0-.175-.325,50.52,50.52,0,0,1-3.833-5.45,18.754,18.754,0,0,1-2.447-7.509,13.039,13.039,0,0,1,1.147-6.324,16.909,16.909,0,0,1,3.589-5.011c.722-.758,1.424-1.542,2.191-2.252,1.071-1,2.191-1.938,3.291-2.907a.572.572,0,0,1,.867,0,55.251,55.251,0,0,1,6.365,6.157,18.483,18.483,0,0,1,2.905,4.655,12.448,12.448,0,0,1,.912,6.613,17,17,0,0,1-2.982,7.435c-1.105,1.623-2.294,3.184-3.456,4.771a.99.99,0,0,1-.144.129Z" transform="translate(-459.235 -15.87)" fill="#fff"/>
    <path id="Path_7" data-name="Path 7" d="M1008.99,434.067c-.339.182-.67.364-1,.539a17.914,17.914,0,0,1-2.827,1.446,25.844,25.844,0,0,1-4.37.909c-1.776.228-3.571.29-5.361.418a24.264,24.264,0,0,0-8.765,1.8A13.878,13.878,0,0,0,982.319,442a2.047,2.047,0,0,1-.285.213l-.093-.087a12.411,12.411,0,0,1,.912-1.269A48.3,48.3,0,0,1,986.542,437a16.733,16.733,0,0,1,7.028-3.6,31.353,31.353,0,0,1,5.965-.795c2.011-.108,3.982-.23,5.963-.436a11.092,11.092,0,0,0,3.7-1.1,11.88,11.88,0,0,0,3.677-3.008,2.834,2.834,0,0,1,.266-.28c.024-.024.075-.024.193-.056-.046.5-.072.963-.131,1.422a24.223,24.223,0,0,1-2.621,8.152,17.3,17.3,0,0,1-2.621,3.869,15.582,15.582,0,0,1-4.874,3.621,15.907,15.907,0,0,1-6.994,1.38,18.965,18.965,0,0,1-4.058-.447,7.806,7.806,0,0,1-.945-.351l.023-.146h.519a31.284,31.284,0,0,0,5.9-.188,11.613,11.613,0,0,0,5.437-2.234,19.131,19.131,0,0,0,2.186-1.876,18.422,18.422,0,0,0,3.844-6.467,1.646,1.646,0,0,0,.064-.249.971.971,0,0,1-.074-.149Z" transform="translate(-527.7 -108.849)" fill="#fff"/>
    <path id="Path_8" data-name="Path 8" d="M761.217,434.388a10.882,10.882,0,0,0,.325,1.129,17.7,17.7,0,0,0,3.466,5.423,15.742,15.742,0,0,0,3.6,2.915,10.841,10.841,0,0,0,4.691,1.461c1.758.136,3.526.1,5.291.132h.579l.032.143a4.154,4.154,0,0,1-.755.286,30.059,30.059,0,0,1-3.275.491,17.658,17.658,0,0,1-5.309-.39,14.441,14.441,0,0,1-7.767-4.837,22.384,22.384,0,0,1-4.792-10.319c-.162-.909-.221-1.843-.325-2.759l.1-.062a1.892,1.892,0,0,1,.282.252,10.349,10.349,0,0,0,7.014,4.058c1.713.262,3.449.385,5.179.524a44.523,44.523,0,0,1,7.043.767,17.865,17.865,0,0,1,5.9,2.73,23.423,23.423,0,0,1,5.5,5.644,5.489,5.489,0,0,1,.3.532c-.595-.487-1.081-.911-1.6-1.294a17.323,17.323,0,0,0-8.642-3.258c-2.255-.235-4.52-.36-6.779-.552a20.97,20.97,0,0,1-7.485-1.647c-.67-.325-1.3-.735-1.943-1.107l-.541-.315Z" transform="translate(-339.587 -109.075)" fill="#fff"/>
    <path id="Path_9" data-name="Path 9" d="M864.041,297.56c1.617,1.06,4.942,5.7,4.943,6.991-.478-.354-.906-.7-1.361-1-.73-.487-1.474-.941-2.215-1.4a.534.534,0,0,0-.807.18c-.7.945-1.517,1.811-2.13,2.81a12.5,12.5,0,0,0-1.966,6.075A16.814,16.814,0,0,0,861.837,318a30.739,30.739,0,0,0,4.1,6.7c.2.275.381.563.568.845l-.081.087c-.193-.162-.393-.325-.576-.508a32.238,32.238,0,0,1-4.932-5.733,15.451,15.451,0,0,1-.658-16.618,27.6,27.6,0,0,1,3.029-4.537,8.14,8.14,0,0,1,.759-.679Z" transform="translate(-424.182)" fill="#fff"/>
    <path id="Path_10" data-name="Path 10" d="M1008.414,325.889a6.2,6.2,0,0,1,.386-.568,30.372,30.372,0,0,0,4.364-6.991,14.155,14.155,0,0,0,.983-9.374,12.825,12.825,0,0,0-2.241-4.529,24.924,24.924,0,0,0-1.6-1.966.582.582,0,0,0-.547-.081c-.819.46-1.638.955-2.435,1.461-.393.243-.76.539-1.136.812l-.123-.09a10.131,10.131,0,0,1,.406-1.007,20.7,20.7,0,0,1,4.173-5.511c.272-.259.442-.273.7,0a23.467,23.467,0,0,1,3,4.144,20.149,20.149,0,0,1,2.226,5.438,13.079,13.079,0,0,1-.631,8.219,24.76,24.76,0,0,1-3.04,5.582,15.621,15.621,0,0,1-1.205,1.461c-.906.941-1.845,1.853-2.773,2.772-.118.116-.259.211-.388.316Z" transform="translate(-547.87 -0.229)" fill="#fff"/>
    <path id="Path_11" data-name="Path 11" d="M790.61,341.17c3.62,1.045,6.915,2.457,9.414,5.315a.975.975,0,0,1-.2-.074,15.041,15.041,0,0,0-4.214-1.8,17.225,17.225,0,0,0-1.953-.3c-.338-.046-.277.213-.275.4a11.466,11.466,0,0,0,.544,3.343,17.381,17.381,0,0,0,5.119,7.784,29.443,29.443,0,0,0,5.215,3.721.325.325,0,0,1,.162.228,3.652,3.652,0,0,1-.55-.115c-1.372-.5-2.771-.947-4.107-1.535a13.6,13.6,0,0,1-5.985-4.891,15.9,15.9,0,0,1-2.423-5.754c-.278-1.4-.434-2.832-.613-4.258C790.674,342.585,790.658,341.915,790.61,341.17Z" transform="translate(-367.709 -36.467)" fill="#fff"/>
    <path id="Path_12" data-name="Path 12" d="M1059.55,346.941c.92-1.756,7.142-5.176,9.41-5.241-.024.441-.02.883-.075,1.311-.214,1.663-.365,3.338-.7,4.977a14.476,14.476,0,0,1-2.979,6.5,13.033,13.033,0,0,1-4.344,3.531c-1.068.523-2.144,1.036-3.246,1.474a13.22,13.22,0,0,1-2.5.668c.416-.275.84-.54,1.245-.829,1.38-.983,2.785-1.926,4.116-2.968a12.2,12.2,0,0,0,3.2-3.793c.644-1.181,1.292-2.363,1.824-3.6a10.986,10.986,0,0,0,.761-4.258,15.144,15.144,0,0,0-6.709,2.223Z" transform="translate(-588.893 -36.911)" fill="#fff"/>
    <path id="Path_13" data-name="Path 13" d="M935.081,550.036a7.434,7.434,0,0,1-2.565,6.127,6.275,6.275,0,0,1-2.785,1.292,9.172,9.172,0,0,1-4.178-.093,6.072,6.072,0,0,1-4.2-3.523,7.888,7.888,0,0,1,1-8.684,5.924,5.924,0,0,1,3-1.926,7.67,7.67,0,0,1,4.781-.037,6.578,6.578,0,0,1,4.8,5.519c.031.183.066.367.081.552C935.049,549.519,935.06,549.778,935.081,550.036Zm-1.623.317c-.053-.568-.076-1.147-.162-1.71a5.557,5.557,0,0,0-5.166-5,5.473,5.473,0,0,0-5.268,3.165,9.285,9.285,0,0,0-.588,4.434c.185,2.875,1.9,5.405,5.158,5.695a4.95,4.95,0,0,0,4.4-1.8,6.852,6.852,0,0,0,1.626-4.779Z" transform="translate(-476.314 -205.097)" fill="#fff"/>
    <path id="Path_14" data-name="Path 14" d="M933.63,635.53a14.242,14.242,0,0,1,1.147.9,10.155,10.155,0,0,0,3.751,2.041.833.833,0,0,0,.532-.011,9.447,9.447,0,0,0,3.256-1.966,6.93,6.93,0,0,1,1.23-.925,17.223,17.223,0,0,1-4.9,7.055C937.177,641.765,933.714,636.932,933.63,635.53Z" transform="translate(-487.303 -282.613)" fill="#fff"/>
    <text id="HAPPY_H" data-name="HAPPY H" transform="translate(366.37 351.272)" fill="#fff" font-size="13" font-family="SegoeUI, Segoe UI" letter-spacing="0.25em"><tspan x="0" y="0">HAPP</tspan><tspan y="0" letter-spacing="0.22em">Y</tspan><tspan y="0" xml:space="preserve"> H</tspan></text>
    <text id="LIDAYSS" transform="translate(466.548 350.272)" fill="#fff" font-size="12" font-family="SegoeUI, Segoe UI" letter-spacing="0.25em"><tspan x="0" y="0">LID</tspan><tspan y="0" letter-spacing="0.16em">A</tspan><tspan y="0" letter-spacing="0.23em">YS</tspan><tspan y="0">S</tspan></text>
  </g>
</svg>
