<svg xmlns="http://www.w3.org/2000/svg" width="28" height="28" viewBox="0 0 28 28">
  <g id="calendar" transform="translate(-936 -1008)">
    <rect id="Rectangle_48" data-name="Rectangle 48" width="28" height="28" transform="translate(936 1008)" fill="none" opacity="0.52"/>
    <g id="Group_63" data-name="Group 63" transform="translate(938.152 1011.333)">
      <path id="Rectangle_49" data-name="Rectangle 49" d="M-.4-1H1.965a.6.6,0,0,1,.6.6V1.965a.6.6,0,0,1-.6.6H-.4a.6.6,0,0,1-.6-.6V-.4A.6.6,0,0,1-.4-1ZM1.362.206H.206V1.362H1.362Z" transform="translate(5.724 11.235)" fill="#939393"/>
      <path id="Rectangle_50" data-name="Rectangle 50" d="M-.4-1H1.965a.6.6,0,0,1,.6.6V1.965a.6.6,0,0,1-.6.6H-.4a.6.6,0,0,1-.6-.6V-.4A.6.6,0,0,1-.4-1ZM1.362.206H.206V1.362H1.362Z" transform="translate(11.235 11.235)" fill="#939393"/>
      <path id="Rectangle_51" data-name="Rectangle 51" d="M-.4-1H1.965a.6.6,0,0,1,.6.6V1.965a.6.6,0,0,1-.6.6H-.4a.6.6,0,0,1-.6-.6V-.4A.6.6,0,0,1-.4-1ZM1.362.206H.206V1.362H1.362Z" transform="translate(16.746 11.235)" fill="#939393"/>
      <path id="Rectangle_52" data-name="Rectangle 52" d="M-.4-1H1.965a.6.6,0,0,1,.6.6V1.965a.6.6,0,0,1-.6.6H-.4a.6.6,0,0,1-.6-.6V-.4A.6.6,0,0,1-.4-1ZM1.362.206H.206V1.362H1.362Z" transform="translate(5.724 15.959)" fill="#939393"/>
      <path id="Rectangle_53" data-name="Rectangle 53" d="M-.4-1H1.965a.6.6,0,0,1,.6.6V1.965a.6.6,0,0,1-.6.6H-.4a.6.6,0,0,1-.6-.6V-.4A.6.6,0,0,1-.4-1ZM1.362.206H.206V1.362H1.362Z" transform="translate(11.235 15.959)" fill="#939393"/>
      <path id="Rectangle_54" data-name="Rectangle 54" d="M-.4-1H1.965a.6.6,0,0,1,.6.6V1.965a.6.6,0,0,1-.6.6H-.4a.6.6,0,0,1-.6-.6V-.4A.6.6,0,0,1-.4-1ZM1.362.206H.206V1.362H1.362Z" transform="translate(16.746 15.959)" fill="#939393"/>
      <path id="Rectangle_55" data-name="Rectangle 55" d="M.809-1h20.42A1.811,1.811,0,0,1,23.038.809V16.5a1.811,1.811,0,0,1-1.809,1.809H.809A1.811,1.811,0,0,1-1,16.5V.809A1.811,1.811,0,0,1,.809-1Zm20.42,18.108a.6.6,0,0,0,.6-.6V.809a.6.6,0,0,0-.6-.6H.809a.6.6,0,0,0-.6.6V16.5a.6.6,0,0,0,.6.6Z" transform="translate(1 3.362)" fill="#939393"/>
      <path id="Line_51" data-name="Line 51" d="M-.4,2.568a.6.6,0,0,1-.6-.6V-.4A.6.6,0,0,1-.4-1a.6.6,0,0,1,.6.6V1.965A.6.6,0,0,1-.4,2.568Z" transform="translate(7.298 1)" fill="#939393"/>
      <path id="Line_52" data-name="Line 52" d="M-.4,2.568a.6.6,0,0,1-.6-.6V-.4A.6.6,0,0,1-.4-1a.6.6,0,0,1,.6.6V1.965A.6.6,0,0,1-.4,2.568Z" transform="translate(12.416 1)" fill="#939393"/>
      <path id="Line_53" data-name="Line 53" d="M-.4,2.568a.6.6,0,0,1-.6-.6V-.4A.6.6,0,0,1-.4-1a.6.6,0,0,1,.6.6V1.965A.6.6,0,0,1-.4,2.568Z" transform="translate(17.533 1)" fill="#939393"/>
      <path id="Line_54" data-name="Line 54" d="M22.435.416h-.006L-.4.206A.6.6,0,0,1-1-.4.6.6,0,0,1-.391-1L22.44-.79a.6.6,0,0,1,.6.609A.6.6,0,0,1,22.435.416Z" transform="translate(1 7.981)" fill="#939393"/>
    </g>
  </g>
</svg>
