<svg xmlns="http://www.w3.org/2000/svg" width="28.343" height="28.343" viewBox="0 0 28.343 28.343">
  <g id="location_on_2" transform="translate(-1512 -576)">
    <path id="Path_221" data-name="Path 221" d="M1512,576h28.343v28.343H1512Z" fill="none"/>
    <path id="Path_222" data-name="Path 222" d="M1512,576h28.343v28.343H1512Z" fill="none"/>
    <path id="Path_223" data-name="Path 223" d="M1537.289,581.9a7.289,7.289,0,0,1,7.289,7.289c0,1.755-.818,4.059-2.431,6.847a47.264,47.264,0,0,1-4.4,6.249.6.6,0,0,1-.905.014,39.455,39.455,0,0,1-4.423-6.205c-1.1-1.929-2.419-4.693-2.419-6.905a7.289,7.289,0,0,1,7.289-7.289Zm-.012,19.077a46.032,46.032,0,0,0,3.837-5.538c1.486-2.568,2.271-4.729,2.271-6.25a6.1,6.1,0,0,0-12.191,0c0,1.543.782,3.726,2.262,6.313A38.84,38.84,0,0,0,1537.276,600.977Z" transform="translate(-11.117 -3.78)" fill="#939393"/>
    <path id="Ellipse_8" data-name="Ellipse 8" d="M1.772-1A2.772,2.772,0,1,1-1,1.772,2.775,2.775,0,0,1,1.772-1Zm0,4.35A1.578,1.578,0,1,0,.193,1.772,1.58,1.58,0,0,0,1.772,3.35Z" transform="translate(1524.4 583.637)" fill="#939393"/>
    <path id="Path_224" data-name="Path 224" d="M1537.9,630.739a9.849,9.849,0,0,1-4.746-1.114A3.61,3.61,0,0,1,1531,626.6a3.163,3.163,0,0,1,1.249-2.4,7.276,7.276,0,0,1,2.924-1.407.6.6,0,1,1,.292,1.157c-1.957.495-3.271,1.56-3.271,2.652a2.5,2.5,0,0,0,1.541,1.985,9.489,9.489,0,0,0,8.322,0,2.5,2.5,0,0,0,1.541-1.985c0-1.1-1.334-2.176-3.32-2.665a.6.6,0,0,1,.286-1.159,7.33,7.33,0,0,1,2.961,1.407,3.172,3.172,0,0,1,1.266,2.417,3.61,3.61,0,0,1-2.149,3.025A9.85,9.85,0,0,1,1537.9,630.739Z" transform="translate(-11.724 -28.554)" fill="#939393"/>
  </g>
</svg>
