<svg xmlns="http://www.w3.org/2000/svg" width="28.915" height="28.915" viewBox="0 0 28.915 28.915">
  <g id="luggage" transform="translate(-1512 -864)">
    <rect id="Rectangle_46" data-name="Rectangle 46" width="28.915" height="28.915" transform="translate(1512 864)" fill="none" opacity="0.52"/>
    <g id="Group_62" data-name="Group 62" transform="translate(1518.024 866.41)">
      <path id="Path_243" data-name="Path 243" d="M1545.827,875.622a.4.4,0,0,1-.4-.4V871.2a.4.4,0,0,0-.4-.4H1540.2a.4.4,0,0,0-.4.4v4.016a.4.4,0,0,1-.8,0V871.2a1.206,1.206,0,0,1,1.2-1.2h4.819a1.206,1.206,0,0,1,1.2,1.2v4.016A.4.4,0,0,1,1545.827,875.622Z" transform="translate(-1534.181 -870)" fill="#939393"/>
      <path id="Rectangle_47" data-name="Rectangle 47" d="M1.008-1H13.859a2.01,2.01,0,0,1,2.008,2.008V15.064a2.01,2.01,0,0,1-2.008,2.008H1.008A2.01,2.01,0,0,1-1,15.064V1.008A2.01,2.01,0,0,1,1.008-1ZM13.859,16.269a1.206,1.206,0,0,0,1.2-1.2V1.008a1.206,1.206,0,0,0-1.2-1.2H1.008a1.206,1.206,0,0,0-1.2,1.2V15.064a1.206,1.206,0,0,0,1.2,1.2Z" transform="translate(1 5.819)" fill="#939393"/>
      <path id="Path_244" data-name="Path 244" d="M1534.2,927.007a1.205,1.205,0,0,1-1.043-1.808.4.4,0,1,1,.7.4.4.4,0,1,0,.75.2.4.4,0,0,0-.053-.2.4.4,0,1,1,.694-.4,1.2,1.2,0,0,1-1.043,1.808Z" transform="translate(-1530.59 -902.911)" fill="#939393"/>
      <path id="Path_245" data-name="Path 245" d="M1558.2,927.008a1.2,1.2,0,0,1-1.043-1.808.4.4,0,1,1,.694.4.4.4,0,0,0-.053.2.4.4,0,0,0,.8,0,.4.4,0,0,0-.053-.2.4.4,0,1,1,.694-.4,1.2,1.2,0,0,1-1.043,1.808Z" transform="translate(-1544.952 -902.912)" fill="#939393"/>
      <path id="Line_48" data-name="Line 48" d="M-.6,10.646a.4.4,0,0,1-.4-.4V-.6A.4.4,0,0,1-.6-1a.4.4,0,0,1,.4.4V10.245A.4.4,0,0,1-.6,10.646Z" transform="translate(5.116 9.032)" fill="#939393"/>
      <path id="Line_49" data-name="Line 49" d="M-.6,10.646a.4.4,0,0,1-.4-.4V-.6A.4.4,0,0,1-.6-1a.4.4,0,0,1,.4.4V10.245A.4.4,0,0,1-.6,10.646Z" transform="translate(9.032 9.032)" fill="#939393"/>
      <path id="Line_50" data-name="Line 50" d="M-.6,10.646a.4.4,0,0,1-.4-.4V-.6A.4.4,0,0,1-.6-1a.4.4,0,0,1,.4.4V10.245A.4.4,0,0,1-.6,10.646Z" transform="translate(12.948 9.032)" fill="#939393"/>
    </g>
  </g>
</svg>
