<svg id="partnership" xmlns="http://www.w3.org/2000/svg" width="47" height="48" viewBox="0 0 47 48">
  <path id="Path_1" data-name="Path 1" d="M11.176,14.478A6.677,6.677,0,1,1,17.853,7.8,6.677,6.677,0,0,1,11.176,14.478Zm0-10.015A3.338,3.338,0,1,0,14.515,7.8,3.338,3.338,0,0,0,11.176,4.463Z" transform="translate(-1.162 -1.125)" fill="#c786bf"/>
  <path id="Path_2" data-name="Path 2" d="M29.176,14.478A6.677,6.677,0,1,1,35.853,7.8,6.677,6.677,0,0,1,29.176,14.478Zm0-10.015A3.338,3.338,0,1,0,32.515,7.8,3.338,3.338,0,0,0,29.176,4.463Z" transform="translate(7.809 -1.125)" fill="#c786bf"/>
  <path id="Path_3" data-name="Path 3" d="M42.536,44.228H35.821a3.328,3.328,0,0,1-3.357-3.3V29.388h3.357V40.93h6.714V26.09h3.357V16.2a1.664,1.664,0,0,0-1.679-1.649H33.437L25.75,27.739,18.063,14.548H7.286A1.664,1.664,0,0,0,5.607,16.2V26.09H8.964V40.93h6.714V29.388h3.357V40.93a3.328,3.328,0,0,1-3.357,3.3H8.964a3.328,3.328,0,0,1-3.357-3.3V29.388a3.328,3.328,0,0,1-3.357-3.3V16.2A4.992,4.992,0,0,1,7.286,11.25H20.009l5.741,9.893,5.741-9.893H44.214A4.992,4.992,0,0,1,49.25,16.2V26.09a3.328,3.328,0,0,1-3.357,3.3V40.93A3.328,3.328,0,0,1,42.536,44.228Z" transform="translate(-2.25 3.772)" fill="#c786bf"/>
</svg>
