<svg xmlns="http://www.w3.org/2000/svg" width="28" height="28" viewBox="0 0 28 28">
  <g id="ticket" transform="translate(-1224 -1152.176)">
    <rect id="Rectangle_67" data-name="Rectangle 67" width="28" height="28" transform="translate(1224 1152.176)" fill="none" opacity="0.52"/>
    <path id="Path_259" data-name="Path 259" d="M1252.87,1175.48a.392.392,0,0,1,.372.271l.9,2.779h2.922a.392.392,0,0,1,.23.708l-2.364,1.718.9,2.779a.392.392,0,0,1-.6.438l-2.364-1.718-2.364,1.718a.392.392,0,0,1-.6-.438l.9-2.779-2.364-1.718a.392.392,0,0,1,.23-.708h2.922l.9-2.779A.391.391,0,0,1,1252.87,1175.48Zm2.992,3.833h-2a.391.391,0,0,1-.372-.271l-.619-1.9-.618,1.9a.392.392,0,0,1-.372.271h-2l1.619,1.176a.392.392,0,0,1,.142.438l-.618,1.9,1.619-1.176a.391.391,0,0,1,.46,0l1.619,1.176-.619-1.9a.392.392,0,0,1,.142-.438Z" transform="translate(-14.772 -14.306)" fill="#939393"/>
    <path id="Path_260" data-name="Path 260" d="M1253.094,1183.882H1230.38a.392.392,0,0,1-.392-.392V1178.4a.392.392,0,0,1,.392-.391h0a1.567,1.567,0,0,0,0-3.133h0a.392.392,0,0,1-.392-.392v-5.091a.392.392,0,0,1,.392-.391h22.714a.392.392,0,0,1,.392.391v5.031a.381.381,0,0,1,0,.061.392.392,0,0,1-.392.392,1.567,1.567,0,0,0,0,3.133.392.392,0,0,1,.392.391.385.385,0,0,1,0,.061v5.03A.392.392,0,0,1,1253.094,1183.882Zm-22.323-.783H1252.7v-4.341a2.35,2.35,0,0,1,0-4.633v-4.341h-21.931v4.34a2.35,2.35,0,0,1,0,4.636Z" transform="translate(-3.643 -10.363)" fill="#939393"/>
  </g>
</svg>
